<?xml version="1.0" standalone="no"?>
<!DOCTYPE svg PUBLIC "-//W3C//DTD SVG 20010904//EN"
 "http://www.w3.org/TR/2001/REC-SVG-20010904/DTD/svg10.dtd">
<svg version="1.0" xmlns="http://www.w3.org/2000/svg"
 width="1536.000000pt" height="1536.000000pt" viewBox="0 0 1536.000000 1536.000000"
 preserveAspectRatio="xMidYMid meet">
<metadata>
Created by potrace 1.14, written by Peter Selinger 2001-2017
</metadata>
<g transform="translate(0.000000,1536.000000) scale(0.100000,-0.100000)"
fill="#000000" stroke="none">
<path d="M7508 10265 c-3 -2 -86 -11 -193 -20 -33 -3 -169 -27 -220 -40 -11
-2 -40 -9 -65 -15 -83 -20 -274 -88 -355 -126 -158 -74 -353 -201 -453 -293
-18 -17 -35 -31 -37 -31 -5 0 -125 -121 -125 -126 0 -2 -10 -14 -22 -26 -170
-176 -321 -465 -385 -738 -20 -85 -20 -88 -28 -151 -4 -30 -9 -67 -11 -84 -2
-16 -5 -64 -6 -105 -1 -85 14 -126 59 -158 37 -25 93 -44 93 -31 0 6 5 7 12 3
17 -11 211 -11 226 -1 6 5 12 6 12 1 0 -7 733 -11 750 -4 3 1 13 1 23 0 10 -1
25 4 33 10 8 7 14 10 14 6 0 -12 79 34 105 61 27 29 52 79 59 120 28 152 119
346 205 436 125 132 288 198 491 199 308 2 464 -99 572 -367 27 -69 41 -252
25 -335 -22 -114 -88 -250 -182 -375 -109 -144 -337 -375 -508 -515 -17 -14
-49 -41 -72 -60 -23 -19 -61 -51 -85 -70 -23 -19 -50 -42 -60 -50 -60 -49
-378 -302 -433 -343 -16 -12 -41 -31 -55 -43 -15 -12 -108 -83 -207 -159 -99
-76 -208 -165 -241 -199 -34 -34 -216 -212 -405 -396 -453 -441 -445 -432
-468 -479 -47 -91 -54 -155 -56 -496 -2 -341 -1 -350 49 -403 11 -13 40 -32
63 -43 41 -19 93 -19 2056 -19 2210 0 2051 -5 2115 60 54 54 56 67 56 530 0
423 0 425 -22 465 -13 22 -42 54 -65 70 -41 29 -46 30 -167 32 -69 2 -136 3
-150 4 -14 0 -160 0 -325 0 -165 0 -307 0 -315 0 -8 0 -54 0 -102 -1 -48 -1
-92 1 -98 5 -5 3 -10 2 -10 -2 0 -5 -15 -8 -32 -6 -73 6 -108 6 -114 0 -3 -3
-17 -2 -30 3 -13 5 -24 6 -24 2 0 -6 -120 -6 -225 -1 -11 0 -123 0 -248 -1
-126 -1 -230 0 -233 3 -5 4 70 81 524 541 86 87 195 188 242 224 126 99 302
243 327 269 12 13 25 23 28 23 3 0 16 10 29 23 13 12 58 54 101 92 130 116
320 310 372 380 5 6 28 37 53 70 45 59 115 161 136 200 6 11 25 45 42 76 63
113 137 311 157 418 3 14 7 37 10 51 14 68 19 148 19 285 1 251 -23 388 -108
622 -19 52 -88 183 -127 241 -16 24 -29 45 -29 47 0 5 -8 16 -86 109 -32 38
-78 88 -103 110 -24 23 -49 46 -55 52 -22 20 -146 114 -151 114 -4 0 -21 11
-38 24 -77 59 -323 171 -472 216 -38 11 -83 25 -100 30 -37 12 -213 46 -280
55 -52 7 -69 9 -170 20 -58 6 -502 15 -507 10z"/>
<path d="M328 10158 c-57 -26 -100 -77 -105 -127 -7 -61 -5 -5050 1 -5086 10
-54 48 -101 101 -125 43 -20 64 -20 551 -20 545 1 528 -1 590 53 60 52 57 -39
57 1510 1 1034 4 1414 12 1405 6 -7 40 -58 76 -113 35 -55 68 -104 72 -110 4
-5 44 -66 89 -135 45 -69 85 -126 90 -128 4 -2 8 -8 8 -13 0 -5 68 -110 150
-235 83 -124 150 -228 150 -230 0 -3 5 -10 11 -17 6 -7 75 -110 154 -230 79
-120 151 -228 162 -239 10 -11 16 -21 14 -22 -3 0 36 -62 85 -136 49 -75 94
-143 99 -152 6 -8 35 -53 66 -99 31 -46 141 -212 244 -369 448 -679 448 -679
519 -718 28 -15 83 -17 508 -20 454 -3 480 -2 522 16 52 23 92 72 103 127 5
22 8 1176 8 2565 l-1 2525 -21 40 c-28 52 -56 75 -113 93 -8 2 -244 5 -525 5
-476 1 -512 0 -545 -17 -51 -28 -84 -70 -95 -123 -10 -44 -11 -303 -2 -303 5
0 5 -5 1 -11 -9 -16 -11 -269 -1 -269 5 0 5 -5 1 -11 -10 -16 -11 -129 -1
-129 5 0 5 -5 1 -11 -8 -14 -10 -317 -1 -325 3 -3 2 -17 -4 -31 -6 -17 -6 -22
3 -17 7 5 8 3 3 -6 -10 -16 -10 -408 0 -432 4 -10 3 -18 -1 -18 -5 0 -9 -40
-9 -90 0 -49 4 -90 8 -90 5 0 5 -5 1 -12 -9 -15 -8 -408 1 -430 4 -10 3 -18
-1 -18 -10 0 -10 -340 0 -365 3 -9 2 -14 -2 -11 -8 5 -6 -68 2 -90 3 -7 2 -15
-2 -18 -4 -2 -6 -64 -5 -136 l1 -133 -54 83 c-30 45 -54 83 -54 85 0 2 -22 38
-50 79 -28 42 -50 80 -50 86 0 5 -3 10 -8 10 -4 0 -12 9 -17 19 -6 11 -35 58
-65 106 -30 47 -59 94 -65 103 -5 10 -30 49 -55 88 -48 74 -177 278 -197 310
-13 20 -225 355 -255 402 -10 15 -21 34 -25 42 -3 8 -10 17 -14 20 -4 3 -15
19 -25 36 -41 68 -99 161 -449 710 -121 191 -227 358 -235 373 -8 14 -32 51
-52 81 -20 30 -73 114 -117 185 -96 154 -148 217 -210 253 l-45 26 -475 1
c-430 0 -478 -1 -513 -17z"/>
<path d="M12884 10162 c-27 -7 -54 -14 -59 -15 -16 -4 -77 -48 -101 -73 -12
-12 -50 -62 -85 -111 -35 -48 -69 -95 -76 -103 -17 -21 -202 -272 -303 -410
-46 -63 -89 -120 -94 -127 -6 -6 -49 -64 -96 -128 -47 -65 -146 -199 -220
-299 -74 -101 -146 -198 -160 -217 -13 -19 -28 -38 -32 -44 -5 -5 -30 -39 -56
-75 -26 -36 -55 -74 -64 -84 -10 -11 -18 -26 -18 -33 0 -7 -4 -13 -9 -13 -4 0
-28 -28 -52 -62 -24 -35 -49 -69 -56 -76 -7 -7 -13 -16 -13 -20 0 -4 -14 -22
-30 -41 -17 -18 -30 -37 -30 -40 0 -4 -8 -16 -18 -27 -10 -10 -33 -41 -52 -69
-19 -27 -41 -54 -47 -58 -7 -4 -13 -14 -13 -22 0 -7 -3 -15 -8 -17 -4 -1 -40
-48 -80 -103 -40 -55 -82 -111 -93 -125 -28 -36 -71 -94 -89 -120 -23 -33
-179 -245 -229 -310 -128 -168 -248 -339 -278 -400 l-38 -75 -3 -425 c-1 -272
2 -436 8 -456 6 -17 23 -45 39 -62 54 -62 62 -62 615 -62 276 0 506 0 511 0
25 -1 455 0 462 1 4 1 13 1 18 -1 13 -2 128 -2 140 0 6 1 15 2 20 1 13 -2 451
-2 462 0 4 1 13 1 18 0 6 -1 72 -2 149 -1 117 1 138 -1 133 -14 -3 -8 -3 -17
0 -20 3 -3 5 -32 4 -63 -1 -32 -1 -65 -1 -73 0 -8 0 -35 -1 -60 -1 -25 -1 -51
0 -57 2 -25 2 -39 0 -106 -1 -37 0 -70 3 -73 3 -3 2 -21 -2 -40 -4 -18 -4 -34
0 -34 5 0 5 -13 0 -30 -5 -19 -5 -30 1 -30 6 0 8 -4 4 -9 -5 -10 -7 -68 -3
-148 1 -24 -1 -45 -5 -49 -3 -3 -2 -16 2 -28 5 -11 5 -30 1 -41 -4 -10 -1 -30
7 -45 7 -14 13 -30 13 -36 0 -15 39 -56 75 -80 29 -18 53 -19 571 -19 l541 0
41 29 c23 16 52 45 65 65 22 36 22 38 23 494 1 252 3 460 6 462 2 3 166 5 364
5 394 1 387 0 451 62 55 53 56 67 56 503 -1 220 -3 413 -6 428 -9 45 -47 96
-91 124 l-41 27 -369 1 -369 1 -1 1519 c-1 1502 -1 1520 -21 1550 -24 36 -50
60 -90 82 -27 16 -87 17 -641 18 -480 1 -621 -2 -660 -13z m106 -2307 l0 -905
-640 0 c-352 0 -640 3 -640 6 0 5 191 279 222 319 10 12 130 182 213 300 33
47 67 94 75 105 8 11 25 34 38 52 146 206 195 276 208 293 8 11 51 72 96 135
44 63 85 117 89 118 5 2 9 7 9 12 0 5 70 107 156 227 86 120 158 224 161 231
3 6 7 12 9 12 2 0 4 -407 4 -905z"/>
</g>
</svg>
